# xmcd
# Copyright (C) 1995-1998 Ti Kan
#
# Track frame offsets:
#       150
#       13644
#       34552
#       46586
#       61247
#       81898
#       98142
#       111883
#       129602
#       152078
#       167800
#       187382
#       208859
#       223591
#       240544
#       256378
#       275342
#       292327
#       308033
#
# Disc length: 4261 seconds
#
# Revision: 0
# Processed by: cddbd v1.5.2PL0 Copyright (c) Steve Scherf et al.
# Submitted via: CD-Import v1.0
#
DISCID=1410a313
DTITLE=Deela - Mano Mano
DYEAR=07
DGENRE=
TTITLE0=Mountains And Stars
TTITLE1=One Eyed Captain
TTITLE2=Killo
TTITLE3=Hole In The Sun
TTITLE4=All There Is
TTITLE5=Uciekam
TTITLE6=Obrigado
TTITLE7=Power Gone
TTITLE8=7 Nights A Week
TTITLE9=Radio Deela
TTITLE10=Absurdio
TTITLE11=Take It Slow
TTITLE12=Esprame
TTITLE13=Quierez Corazon
TTITLE14=For What You Are
TTITLE15=Naked
TTITLE16=Local Deela
TTITLE17=Parero
TTITLE18=King Alpha and Queen Omega
EXTD=
EXTT0=
EXTT1=
EXTT2=
EXTT3=
EXTT4=
EXTT5=
EXTT6=
EXTT7=
EXTT8=
EXTT9=
EXTT10=
EXTT11=
EXTT12=
EXTT13=
EXTT14=
EXTT15=
EXTT16=
EXTT17=
EXTT18=
PLAYORDER=
